<?xml version="1.0" standalone="no"?>
<!DOCTYPE svg PUBLIC "-//W3C//DTD SVG 20010904//EN"
 "http://www.w3.org/TR/2001/REC-SVG-20010904/DTD/svg10.dtd">
<svg version="1.0" xmlns="http://www.w3.org/2000/svg"
 width="407.000000pt" height="470.000000pt" viewBox="0 0 407.000000 470.000000"
 preserveAspectRatio="xMidYMid meet">

<g transform="translate(0.000000,470.000000) scale(0.100000,-0.100000)"
fill="#000000" stroke="none">
<path d="M685 4679 c-222 -45 -398 -197 -477 -413 -59 -158 -46 -371 31 -523
38 -77 109 -172 158 -213 l40 -33 -69 -111 c-141 -226 -230 -460 -274 -716
-10 -61 -18 -184 -21 -341 l-6 -246 31 -34 c27 -30 35 -33 86 -33 50 0 60 3
88 31 l32 32 2 168 c3 195 8 256 34 413 69 417 315 831 655 1103 187 150 336
236 520 300 409 141 801 125 1213 -52 232 -99 465 -277 644 -491 109 -129 165
-214 238 -359 114 -228 163 -400 181 -639 14 -176 30 -204 124 -204 56 0 99
23 115 62 19 45 7 228 -25 383 -48 234 -131 440 -257 635 l-60 92 69 73 c79
83 154 217 178 318 47 199 -8 425 -142 583 -191 228 -502 290 -765 154 -101
-52 -203 -157 -255 -263 l-37 -74 -35 15 c-56 23 -247 72 -341 86 -52 8 -174
13 -315 13 -213 -1 -240 -3 -360 -28 -109 -24 -214 -53 -286 -82 -13 -5 -23 6
-42 47 -74 162 -239 301 -402 341 -98 24 -172 26 -270 6z"/>
<path d="M1331 3288 c-68 -10 -128 -43 -233 -127 -268 -213 -367 -377 -337
-560 41 -259 306 -385 557 -264 135 66 282 273 362 513 59 178 2 349 -139 413
-56 25 -140 35 -210 25z m62 -269 c63 -32 75 -102 28 -150 -41 -41 -83 -39
-127 5 -35 35 -42 62 -23 99 26 51 76 69 122 46z"/>
<path d="M2661 3289 c-206 -41 -285 -230 -201 -481 63 -186 176 -359 288 -435
215 -147 475 -90 589 129 24 47 27 63 28 153 0 89 -3 107 -27 159 -42 89 -89
146 -206 251 -216 194 -336 251 -471 224z m151 -271 c54 -45 62 -105 19 -149
-60 -60 -151 -22 -151 63 0 71 83 125 132 86z"/>
<path d="M1780 2487 c-16 -8 -28 -26 -34 -49 -8 -31 -5 -43 18 -82 35 -59 88
-94 165 -109 l61 -12 0 -97 c0 -93 -1 -99 -27 -128 -38 -40 -103 -57 -163 -40
-35 9 -60 28 -111 81 -70 73 -102 86 -131 52 -29 -34 -29 -55 -3 -109 27 -56
85 -113 146 -144 60 -31 158 -45 215 -31 49 12 134 59 134 74 0 12 29 8 37 -6
32 -53 128 -81 224 -66 119 18 217 87 264 185 15 33 15 37 -2 72 -14 30 -24
38 -50 40 -28 3 -36 -3 -75 -54 -93 -124 -257 -140 -304 -29 -15 36 -18 114
-8 178 6 33 10 37 38 37 67 1 146 46 180 102 24 40 21 100 -7 126 -23 21 -30
22 -283 22 -188 0 -266 -4 -284 -13z"/>
<path d="M3642 1829 c-55 -99 -132 -166 -227 -195 -55 -16 -173 -18 -225 -4
-67 18 -143 73 -191 137 -26 33 -49 67 -51 74 -5 16 -156 -74 -165 -98 -14
-35 92 -201 165 -260 206 -166 546 -148 730 38 54 54 105 132 131 202 10 26 8
30 -51 73 -95 70 -96 70 -116 33z"/>
<path d="M635 1694 c-118 -12 -212 -28 -314 -55 -154 -41 -311 -99 -311 -117
0 -19 80 -221 90 -227 4 -3 32 6 61 19 168 74 382 116 589 116 252 0 503 -57
830 -188 126 -51 190 -79 445 -192 451 -200 754 -280 1065 -280 224 0 479 59
650 151 97 53 102 58 165 164 51 86 171 352 162 361 -2 2 -35 -23 -73 -56
-141 -123 -344 -242 -504 -295 -114 -38 -236 -55 -395 -55 -310 0 -574 73
-1040 285 -580 265 -888 356 -1240 368 -77 3 -158 3 -180 1z"/>
<path d="M755 1106 c-129 -25 -239 -57 -331 -97 -136 -60 -132 -52 -66 -134
31 -39 68 -86 82 -104 l26 -34 41 22 c23 11 93 36 155 53 108 32 120 33 288
33 291 0 442 -45 875 -259 425 -211 540 -241 752 -201 80 15 232 83 285 127
l28 23 -41 100 c-23 55 -43 102 -45 105 -3 2 -31 -10 -62 -27 -100 -54 -156
-67 -277 -67 -98 0 -121 4 -205 33 -52 17 -174 74 -271 125 -437 232 -665 304
-994 311 -116 3 -192 0 -240 -9z"/>
<path d="M1120 416 c-36 -8 -96 -26 -133 -41 -81 -33 -87 -26 107 -125 216
-110 424 -179 661 -220 267 -45 574 -32 800 36 l60 18 -123 12 c-240 23 -340
52 -659 189 -112 47 -247 97 -300 111 -122 31 -315 41 -413 20z"/>
</g>
</svg>
